<?xml version="1.0" standalone="yes"?>

<svg version="1.1" viewBox="0.0 0.0 96.0 96.0" fill="none" stroke="none" stroke-linecap="square" stroke-miterlimit="10" xmlns="http://www.w3.org/2000/svg" xmlns:xlink="http://www.w3.org/1999/xlink"><clipPath id="p.0"><path d="m0 0l96.0 0l0 96.0l-96.0 0l0 -96.0z" clip-rule="nonzero"></path></clipPath><g clip-path="url(#p.0)"><path fill="#000000" fill-opacity="0.0" d="m0 0l96.0 0l0 96.0l-96.0 0z" fill-rule="nonzero"></path><path fill="#ffffff" d="m25.914068 90.26781l-23.595707 -23.59571c-6.2704086E-5 -6.1035156E-5 -9.775162E-5 -1.449585E-4 -9.775162E-5 -2.3651123E-4c0 -8.392334E-5 3.504753E-5 -1.6784668E-4 9.775162E-5 -2.3651123E-4l29.989408 -29.98893c2.606369 -2.6063728 6.8321342 -2.6063728 9.438507 0l23.595703 23.595703l0 0c1.373291E-4 1.335144E-4 1.373291E-4 3.4332275E-4 0 4.7302246E-4l-29.989403 29.988937l0 0c-2.6063728 2.606369 -6.832138 2.606369 -9.438509 0z" fill-rule="nonzero"></path><path stroke="#000000" stroke-width="3.0" stroke-linejoin="round" stroke-linecap="butt" d="m25.914068 90.26781l-23.595707 -23.59571c-6.2704086E-5 -6.1035156E-5 -9.775162E-5 -1.449585E-4 -9.775162E-5 -2.3651123E-4c0 -8.392334E-5 3.504753E-5 -1.6784668E-4 9.775162E-5 -2.3651123E-4l29.989408 -29.98893c2.606369 -2.6063728 6.8321342 -2.6063728 9.438507 0l23.595703 23.595703l0 0c1.373291E-4 1.335144E-4 1.373291E-4 3.4332275E-4 0 4.7302246E-4l-29.989403 29.988937l0 0c-2.6063728 2.606369 -6.832138 2.606369 -9.438509 0z" fill-rule="nonzero"></path><path fill="#efefef" d="m53.669266 48.60635l11.679741 11.679741c3.0517578E-5 3.4332275E-5 5.340576E-5 7.6293945E-5 5.340576E-5 1.18255615E-4c0 4.5776367E-5 -2.2888184E-5 8.773804E-5 -5.340576E-5 1.18255615E-4l-18.419899 18.419666c-1.2901382 1.2901382 -3.3818703 1.2901382 -4.6720085 0l-11.679743 -11.679741l0 0c-6.484985E-5 -6.866455E-5 -6.484985E-5 -1.7547607E-4 0 -2.3651123E-4l18.4199 -18.419666l0 0c1.2901382 -1.290142 3.3818703 -1.290142 4.6720085 0z" fill-rule="nonzero"></path><path stroke="#000000" stroke-width="3.0" stroke-linejoin="round" stroke-linecap="butt" d="m53.669266 48.60635l11.679741 11.679741c3.0517578E-5 3.4332275E-5 5.340576E-5 7.6293945E-5 5.340576E-5 1.18255615E-4c0 4.5776367E-5 -2.2888184E-5 8.773804E-5 -5.340576E-5 1.18255615E-4l-18.419899 18.419666c-1.2901382 1.2901382 -3.3818703 1.2901382 -4.6720085 0l-11.679743 -11.679741l0 0c-6.484985E-5 -6.866455E-5 -6.484985E-5 -1.7547607E-4 0 -2.3651123E-4l18.4199 -18.419666l0 0c1.2901382 -1.290142 3.3818703 -1.290142 4.6720085 0z" fill-rule="nonzero"></path><path fill="#ffffff" d="m85.279526 5.8617535l6.173233 6.1732283l-47.370083 47.37008l-6.173229 -6.173229z" fill-rule="nonzero"></path><path stroke="#000000" stroke-width="3.0" stroke-linejoin="round" stroke-linecap="butt" d="m85.279526 5.8617535l6.173233 6.1732283l-47.370083 47.37008l-6.173229 -6.173229z" fill-rule="nonzero"></path><path fill="#ffffff" d="m75.596054 15.500922l0 0c-0.85814667 -0.85814285 -0.85814667 -2.2494678 0 -3.1076117l8.419945 -8.419948c0.41209412 -0.41209483 0.97101593 -0.6436074 1.5538025 -0.6436074c0.5827942 0 1.141716 0.23151255 1.5538101 0.6436074l6.2152176 6.2152233c0.85814667 0.8581438 0.85814667 2.2494688 0 3.1076117l-8.419945 8.419947l0 0c-0.85813904 0.85814476 -2.249466 0.85814476 -3.1076126 0z" fill-rule="nonzero"></path><path stroke="#000000" stroke-width="3.0" stroke-linejoin="round" stroke-linecap="butt" d="m75.596054 15.500922l0 0c-0.85814667 -0.85814285 -0.85814667 -2.2494678 0 -3.1076117l8.419945 -8.419948c0.41209412 -0.41209483 0.97101593 -0.6436074 1.5538025 -0.6436074c0.5827942 0 1.141716 0.23151255 1.5538101 0.6436074l6.2152176 6.2152233c0.85814667 0.8581438 0.85814667 2.2494688 0 3.1076117l-8.419945 8.419947l0 0c-0.85813904 0.85814476 -2.249466 0.85814476 -3.1076126 0z" fill-rule="nonzero"></path><path fill="#000000" d="m29.230936 74.25354l0 0c0.69579124 -0.6957855 1.8238926 -0.6957855 2.5196838 0l0 0c0.33413124 0.33413696 0.52184486 0.78731537 0.52184486 1.2598419c0 0.47253418 -0.18771362 0.9257126 -0.52184486 1.2598419l0 0c-0.69579124 0.69579315 -1.8238926 0.69579315 -2.5196838 0l0 0c-0.69579315 -0.6957855 -0.69579315 -1.8238907 0 -2.5196838z" fill-rule="nonzero"></path><path fill="#000000" d="m31.285954 81.385l0 0c0.69579315 -0.69579315 1.8238945 -0.69579315 2.5196838 0l0 0c0.33413315 0.33412933 0.5218468 0.78730774 0.5218468 1.2598419c0 0.47253418 -0.18771362 0.9257126 -0.5218468 1.2598419l0 0c-0.69578934 0.69579315 -1.8238907 0.69579315 -2.5196838 0l0 0c-0.69579124 -0.69579315 -0.69579124 -1.8238907 0 -2.5196838z" fill-rule="nonzero"></path></g></svg>

