<?xml version="1.0" standalone="yes"?>

<svg version="1.1" viewBox="0.0 0.0 96.0 96.0" fill="none" stroke="none" stroke-linecap="square" stroke-miterlimit="10" xmlns="http://www.w3.org/2000/svg" xmlns:xlink="http://www.w3.org/1999/xlink"><clipPath id="p.0"><path d="m0 0l96.0 0l0 96.0l-96.0 0l0 -96.0z" clip-rule="nonzero"></path></clipPath><g clip-path="url(#p.0)"><path fill="#000000" fill-opacity="0.0" d="m0 0l96.0 0l0 96.0l-96.0 0z" fill-rule="nonzero"></path><path fill="#ffffff" d="m0 0l32.0 0l0 96.0l-32.0 0z" fill-rule="nonzero"></path><path stroke="#000000" stroke-width="3.0" stroke-linejoin="round" stroke-linecap="butt" d="m0 0l32.0 0l0 96.0l-32.0 0z" fill-rule="nonzero"></path><path fill="#ffffff" d="m32.0 0l32.0 0l0 96.0l-32.0 0z" fill-rule="nonzero"></path><path stroke="#000000" stroke-width="3.0" stroke-linejoin="round" stroke-linecap="butt" d="m32.0 0l32.0 0l0 96.0l-32.0 0z" fill-rule="nonzero"></path><path fill="#ffffff" d="m64.0 0l32.0 0l0 96.0l-32.0 0z" fill-rule="nonzero"></path><path stroke="#000000" stroke-width="3.0" stroke-linejoin="round" stroke-linecap="butt" d="m64.0 0l32.0 0l0 96.0l-32.0 0z" fill-rule="nonzero"></path><path fill="#000000" d="m24.0 0l16.0 0l0 56.0l-16.0 0z" fill-rule="nonzero"></path><path stroke="#000000" stroke-width="1.0" stroke-linejoin="round" stroke-linecap="butt" d="m24.0 0l16.0 0l0 56.0l-16.0 0z" fill-rule="nonzero"></path><path fill="#000000" d="m56.0 0l16.0 0l0 56.0l-16.0 0z" fill-rule="nonzero"></path><path stroke="#000000" stroke-width="1.0" stroke-linejoin="round" stroke-linecap="butt" d="m56.0 0l16.0 0l0 56.0l-16.0 0z" fill-rule="nonzero"></path></g></svg>

