<?xml version="1.0" standalone="no"?>
<!DOCTYPE svg PUBLIC "-//W3C//DTD SVG 20010904//EN"
 "http://www.w3.org/TR/2001/REC-SVG-20010904/DTD/svg10.dtd">
<svg version="1.0" xmlns="http://www.w3.org/2000/svg"
 width="1280.000000pt" height="1280.000000pt" viewBox="0 0 1280.000000 1280.000000"
 preserveAspectRatio="xMidYMid meet">
<metadata>
Created by potrace 1.11, written by Peter Selinger 2001-2013
</metadata>
<g transform="translate(0.000000,1280.000000) scale(0.100000,-0.100000)"
fill="#000000" stroke="none">
<path d="M234 11029 c-18 -5 -44 -15 -59 -23 -41 -21 -115 -87 -115 -102 0 -7
-4 -14 -10 -16 -5 -1 -19 -29 -30 -60 -20 -57 -20 -79 -20 -2164 0 -2060 0
-2106 19 -2101 10 2 25 1 32 -4 7 -4 21 -3 30 2 12 6 20 5 24 -1 4 -6 11 -8
16 -4 13 8 79 11 79 4 0 -3 17 -4 38 -2 50 4 54 4 77 -1 11 -2 27 -1 36 4 8 4
21 4 29 -1 8 -5 21 -5 31 1 10 5 20 5 23 1 3 -5 28 -6 56 -2 27 4 50 3 50 -2
0 -4 11 -3 25 2 16 6 25 6 25 0 0 -5 9 -6 22 -1 22 8 45 51 28 51 -6 0 -6 9 0
25 6 16 6 26 -1 31 -7 4 -7 10 0 18 6 7 6 17 1 26 -5 8 -5 21 0 30 6 11 5 21
-1 27 -8 8 -8 13 0 17 7 4 7 15 1 30 -5 13 -6 27 -3 30 10 9 9 576 0 576 -5 0
-5 5 -1 12 11 17 11 228 1 228 -5 0 -5 5 -1 12 11 17 11 228 1 228 -5 0 -5 5
-1 12 11 17 11 228 0 228 -5 0 -4 6 0 13 5 6 9 155 9 329 l-1 317 25 0 c37 2
58 2 124 1 32 0 62 2 68 5 5 4 9 1 9 -5 0 -6 5 -8 10 -5 6 3 52 6 103 6 103
-1 119 -1 145 -1 51 1 193 1 230 1 42 -1 57 -1 90 -1 9 1 59 1 111 1 51 -1 97
2 102 4 4 3 10 1 14 -5 4 -6 11 -8 16 -4 10 5 141 9 164 4 6 -1 22 -2 36 -1
26 1 29 7 29 56 0 14 0 32 0 40 0 8 0 40 1 70 1 31 -1 58 -4 62 -4 3 -2 13 3
22 5 10 5 23 0 31 -5 8 -5 21 0 30 5 9 5 22 0 30 -5 8 -5 21 0 30 5 9 5 22 0
30 -5 8 -5 21 0 30 5 9 5 22 0 30 -5 8 -5 21 0 30 5 9 5 22 0 29 -4 8 -4 27 0
42 5 16 5 29 0 29 -4 0 -6 8 -3 19 3 10 0 22 -7 26 -17 10 -70 13 -76 3 -3 -4
-14 -4 -24 2 -12 6 -21 7 -25 0 -3 -5 -12 -7 -19 -4 -22 8 -96 10 -96 2 0 -4
-10 -4 -22 0 -23 9 -76 7 -85 -2 -3 -3 -16 -1 -29 4 -14 6 -26 6 -29 0 -4 -7
-13 -7 -24 0 -12 6 -22 5 -29 -2 -9 -9 -15 -9 -23 -1 -8 8 -20 8 -35 3 -15 -6
-24 -6 -24 0 0 6 -9 6 -25 0 -14 -5 -25 -6 -25 -2 0 4 -18 7 -40 7 -22 0 -40
-3 -40 -7 0 -4 -11 -3 -25 2 -16 6 -25 6 -25 0 0 -6 -9 -6 -22 -2 -23 9 -76 7
-85 -2 -3 -3 -16 -1 -29 4 -15 6 -26 6 -30 -1 -4 -7 -10 -7 -18 0 -7 6 -15 8
-19 5 -9 -9 -68 -11 -73 -2 -3 4 -15 3 -27 -1 -12 -5 -32 -5 -44 0 -14 5 -23
5 -23 -1 0 -5 -6 -7 -13 -4 -21 8 -98 10 -102 3 -2 -3 -18 -4 -34 -1 -17 2
-28 8 -25 13 3 5 0 18 -6 29 -7 13 -7 20 -1 20 7 0 7 9 1 26 -6 14 -7 23 -2
21 4 -3 7 19 7 48 0 29 -3 51 -7 48 -5 -2 -4 7 2 21 6 16 6 26 0 26 -6 0 -6 9
0 25 6 15 6 26 0 30 -6 4 -7 13 -1 24 6 10 6 23 1 31 -5 8 -6 18 -3 24 9 14 9
65 1 59 -5 -2 -4 7 2 21 6 16 6 26 0 26 -6 0 -6 9 0 25 6 15 6 26 0 30 -6 4
-7 13 -1 24 6 10 6 23 1 31 -5 8 -6 18 -3 24 9 14 9 65 1 59 -5 -2 -4 7 2 21
6 16 6 26 0 26 -6 0 -6 9 0 25 6 15 6 26 0 30 -6 4 -7 13 -1 23 6 11 6 24 0
34 -6 10 -6 19 0 23 6 3 7 15 2 28 -9 22 0 60 16 70 5 3 15 2 23 -3 8 -5 21
-5 31 1 11 6 20 5 24 -1 4 -7 12 -7 25 0 12 6 21 7 25 0 4 -6 15 -6 31 0 17 7
23 7 19 0 -4 -7 3 -7 19 0 17 6 26 6 26 -1 0 -6 7 -6 19 1 14 7 22 7 26 0 4
-6 11 -7 17 -4 15 10 68 11 68 2 0 -4 14 -3 30 2 19 5 30 5 30 -1 0 -6 7 -6
19 0 10 6 21 8 23 5 5 -4 79 -6 128 -3 8 0 25 -2 37 -5 13 -2 25 -1 28 5 4 5
14 5 26 -1 12 -7 19 -7 19 -1 0 7 8 7 23 2 12 -5 32 -5 45 0 14 5 31 5 41 0
10 -6 23 -6 33 0 10 6 19 6 23 0 4 -7 15 -7 30 -1 14 5 25 6 25 2 0 -4 16 -7
35 -7 19 0 35 3 35 7 0 4 11 3 25 -2 15 -6 26 -6 30 1 4 5 11 6 17 3 14 -9
103 -8 117 1 6 3 11 1 11 -5 0 -7 6 -8 19 0 14 7 22 7 26 0 4 -6 11 -7 17 -4
15 10 68 11 68 2 0 -4 13 -3 30 2 19 5 30 5 30 -1 0 -6 7 -6 19 0 10 6 21 8
23 5 5 -4 79 -6 128 -3 8 0 25 -2 37 -5 13 -2 25 -1 28 5 4 5 14 5 26 -1 12
-7 19 -7 19 -1 0 7 8 7 23 2 12 -5 32 -5 45 0 14 5 31 5 41 0 10 -6 23 -6 31
-1 9 5 19 5 26 -1 8 -7 14 -6 19 1 4 7 12 7 25 0 29 -16 54 27 39 68 -5 13 -5
22 2 22 6 0 6 6 0 18 -7 13 -7 22 0 29 8 8 7 13 0 17 -8 5 -8 13 -1 27 8 13 7
19 0 19 -8 0 -8 6 0 20 8 14 8 20 0 20 -8 0 -8 6 0 20 8 14 8 20 0 20 -8 0 -8
6 0 20 8 14 8 20 0 20 -8 0 -8 6 0 20 8 14 8 20 0 20 -8 0 -8 6 0 20 8 14 8
20 0 20 -8 0 -8 6 0 20 8 14 8 20 0 20 -8 0 -8 6 0 20 8 14 8 20 0 20 -8 0 -8
6 0 20 8 14 8 20 0 20 -8 0 -8 6 0 20 8 14 8 20 0 20 -8 0 -8 6 0 20 8 14 8
20 0 20 -8 0 -8 6 0 20 11 20 9 20 -1142 19 -649 -1 -1167 -5 -1184 -10z"/>
<path d="M2879 11018 c-1 -13 0 -39 0 -58 2 -63 0 -124 -5 -132 -3 -4 -1 -8 5
-8 6 0 6 -11 1 -30 -5 -16 -6 -30 -2 -30 8 0 7 -68 -1 -76 -3 -3 -2 -17 3 -30
6 -14 6 -26 0 -29 -6 -3 -6 -15 0 -30 6 -15 6 -25 0 -25 -5 0 -5 -12 0 -30 5
-17 5 -30 0 -30 -5 0 -5 -13 0 -30 5 -17 5 -30 0 -30 -5 0 -5 -12 -1 -28 5
-15 5 -37 0 -49 -5 -13 -4 -25 1 -28 7 -4 7 -13 0 -24 -5 -10 -6 -21 -3 -25 4
-4 6 -26 4 -49 -6 -90 -6 -117 0 -117 4 0 3 -15 -1 -34 -4 -18 -3 -40 1 -49 6
-9 5 -18 0 -21 -6 -4 -6 -18 -1 -36 5 -17 6 -30 2 -30 -8 0 -7 -89 1 -97 3 -3
2 -16 -3 -29 -6 -14 -6 -26 0 -29 6 -4 7 -13 1 -24 -6 -10 -6 -23 -1 -31 5 -8
5 -21 0 -30 -5 -9 -5 -22 0 -30 5 -8 5 -21 0 -30 -5 -9 -5 -22 0 -30 4 -7 4
-24 0 -36 -6 -14 -5 -26 0 -29 6 -4 7 -13 1 -24 -6 -10 -6 -23 -1 -31 5 -8 5
-21 0 -30 -5 -9 -5 -22 0 -30 5 -8 5 -21 0 -30 -5 -9 -5 -22 0 -30 5 -8 5 -21
0 -31 -5 -9 -6 -19 -3 -23 4 -4 6 -26 4 -49 -6 -90 -6 -117 0 -117 4 0 3 -15
-1 -34 -4 -18 -3 -40 1 -49 6 -9 5 -18 0 -21 -6 -4 -6 -18 -1 -36 5 -17 6 -30
2 -30 -8 0 -7 -83 1 -104 3 -7 1 -19 -3 -26 -5 -8 -4 -22 1 -31 5 -11 5 -20 0
-24 -6 -3 -6 -17 -1 -35 5 -17 5 -30 0 -30 -5 0 -5 -13 0 -30 5 -17 5 -30 0
-30 -5 0 -5 -13 0 -29 4 -16 6 -32 3 -35 -8 -8 -9 -186 -1 -186 4 0 3 -13 -2
-30 -5 -16 -5 -30 0 -30 4 0 6 -8 4 -17 -7 -31 -9 -153 -3 -153 4 0 3 -15 -1
-34 -4 -18 -3 -40 1 -49 6 -9 5 -18 0 -21 -6 -4 -6 -18 -1 -36 5 -17 6 -30 2
-30 -8 0 -7 -89 1 -97 3 -3 2 -16 -3 -29 -6 -14 -6 -26 0 -29 6 -4 7 -13 1
-24 -6 -10 -6 -23 -1 -31 5 -8 5 -21 0 -30 -5 -9 -5 -22 0 -30 5 -8 5 -21 0
-30 -5 -9 -5 -22 0 -30 4 -7 4 -24 0 -36 -6 -14 -5 -26 0 -29 6 -4 7 -13 1
-24 -6 -10 -6 -23 -1 -31 5 -8 5 -21 0 -30 -5 -9 -5 -22 0 -30 5 -8 5 -21 0
-30 -5 -9 -5 -22 0 -30 5 -8 5 -21 0 -31 -5 -9 -6 -19 -3 -23 4 -4 6 -26 4
-49 -6 -90 -6 -117 0 -117 4 0 3 -15 -1 -34 -4 -18 -3 -40 1 -49 6 -9 5 -18 0
-21 -6 -4 -6 -18 -1 -36 5 -17 6 -30 2 -30 -8 0 -7 -83 1 -104 3 -7 1 -19 -3
-26 -5 -8 -4 -22 1 -31 5 -11 5 -20 0 -24 -6 -3 -6 -17 -1 -35 5 -17 5 -30 0
-30 -5 0 -5 -13 0 -30 5 -17 5 -30 0 -30 -5 0 -5 -12 -1 -27 4 -16 4 -40 0
-55 -4 -16 -3 -30 1 -33 5 -3 5 -16 0 -30 -6 -15 -6 -27 0 -30 5 -3 7 -12 4
-19 -3 -8 -1 -17 5 -21 6 -3 11 -2 11 4 0 6 11 6 30 1 18 -5 32 -5 35 1 4 5
14 5 25 -1 13 -7 21 -7 25 0 4 6 11 8 16 4 13 -8 175 -8 188 0 5 4 12 2 16 -4
4 -7 12 -7 25 0 13 7 21 7 25 0 4 -7 12 -7 24 0 10 5 21 7 24 4 9 -10 42 -12
58 -3 8 4 21 4 29 -1 8 -5 21 -5 31 1 11 6 20 5 24 -1 10 -17 42 7 47 35 3 14
2 25 -3 25 -4 0 -4 13 1 30 5 16 5 32 0 35 -5 3 -5 19 0 35 5 18 5 30 0 30 -6
0 -6 10 0 25 6 15 6 25 0 25 -5 0 -5 12 0 30 5 17 5 30 0 30 -5 0 -5 13 0 30
5 17 5 30 0 30 -5 0 -5 13 0 30 5 17 5 30 0 30 -4 0 -6 8 -4 18 7 30 9 152 3
152 -4 0 -3 15 1 34 4 18 3 40 -1 49 -6 9 -5 18 0 21 6 4 6 18 1 36 -5 17 -6
30 -2 30 8 0 7 89 -1 97 -3 3 -2 16 3 29 6 14 6 26 0 29 -6 4 -7 13 -1 24 6
10 6 23 1 31 -5 8 -5 21 0 30 5 9 5 22 0 30 -5 8 -5 21 0 30 5 9 5 22 0 30 -4
7 -4 24 0 36 6 14 5 26 0 29 -6 4 -7 13 -1 24 6 10 6 23 1 31 -5 8 -5 21 0 30
5 9 5 22 0 30 -5 8 -5 21 0 30 5 9 5 22 0 30 -5 8 -5 21 0 31 5 9 6 19 3 23
-4 4 -6 26 -4 49 6 90 6 117 0 117 -4 0 -3 15 1 34 4 18 3 40 -1 49 -6 9 -5
18 0 21 6 4 6 18 1 36 -5 17 -6 30 -2 30 8 0 7 83 -1 104 -3 7 -1 19 3 26 5 8
4 22 -1 31 -5 11 -5 20 0 24 6 3 6 17 1 35 -5 17 -5 30 0 30 5 0 5 13 0 30 -5
17 -5 30 0 30 5 0 5 13 0 29 -4 16 -6 32 -3 35 8 8 9 186 1 186 -4 0 -3 14 2
30 5 17 5 30 1 30 -4 0 -4 27 -1 60 3 33 3 60 -1 60 -4 0 -4 14 1 30 5 17 6
30 2 30 -8 0 -7 68 1 76 3 3 2 17 -3 30 -6 14 -6 26 0 29 6 3 6 15 0 30 -6 15
-6 25 0 25 5 0 5 12 0 30 -5 17 -5 30 0 30 5 0 5 13 0 30 -5 17 -5 30 0 30 5
0 5 12 1 28 -5 15 -5 37 0 49 5 13 4 25 -1 28 -6 4 -7 13 -1 24 5 9 6 23 2 29
-4 7 -4 35 -1 62 4 28 3 50 -1 50 -4 0 -4 14 1 30 5 17 6 30 2 30 -8 0 -7 68
1 76 3 3 2 17 -3 30 -6 14 -6 26 0 29 6 3 6 15 0 30 -6 15 -6 25 0 25 5 0 5
12 0 30 -5 17 -5 30 0 30 5 0 5 13 0 30 -5 17 -5 30 0 30 5 0 5 12 1 28 -5 15
-5 37 0 49 5 13 4 25 -1 28 -7 4 -7 13 0 24 5 10 6 21 3 25 -4 4 -6 26 -4 49
6 90 6 117 0 117 -4 0 -3 15 1 34 4 18 3 40 -1 49 -6 9 -5 18 0 21 6 4 6 18 1
36 -5 17 -6 30 -2 30 8 0 7 89 -1 97 -3 3 -2 16 3 29 6 14 6 26 0 29 -6 4 -7
13 -1 24 6 10 6 23 1 31 -5 8 -5 21 0 30 5 9 5 22 0 30 -5 8 -5 21 0 31 5 9 7
19 4 22 -9 8 -10 87 -2 87 4 0 3 14 -2 30 -5 17 -5 30 -1 30 5 0 6 11 3 25
l-4 25 -319 0 -319 0 -1 -22z"/>
<path d="M4158 9445 c-2 -3 -22 -7 -44 -10 -50 -8 -124 -35 -124 -46 0 -5 -6
-9 -13 -9 -19 0 -83 -76 -107 -127 -11 -24 -22 -66 -24 -94 -2 -27 -6 -53 -9
-56 -4 -3 -2 -14 3 -24 7 -11 7 -20 0 -24 -6 -3 -6 -15 0 -29 5 -13 6 -26 4
-29 -9 -8 -9 -81 -1 -94 4 -6 3 -14 -2 -18 -7 -4 -7 -15 -1 -30 6 -16 6 -25 0
-25 -6 0 -6 -9 0 -25 5 -14 6 -25 2 -25 -4 0 -7 -25 -7 -55 0 -30 4 -55 8 -55
4 0 4 -8 -2 -17 -5 -10 -5 -26 0 -40 5 -14 5 -23 -1 -23 -6 0 -6 -9 0 -25 5
-14 6 -25 2 -25 -4 0 -7 -25 -7 -55 0 -30 4 -55 8 -55 4 0 4 -8 -2 -17 -5 -10
-5 -26 0 -40 5 -14 5 -23 -1 -23 -6 0 -6 -9 0 -25 5 -14 6 -25 2 -25 -4 0 -7
-25 -7 -55 0 -30 4 -55 8 -55 4 0 4 -8 -2 -17 -5 -10 -5 -26 0 -40 5 -14 5
-23 -1 -23 -6 0 -6 -9 0 -25 5 -14 6 -25 2 -25 -4 0 -7 -25 -7 -55 0 -30 4
-55 8 -55 4 0 4 -8 -2 -17 -5 -10 -5 -26 0 -40 5 -14 5 -23 -1 -23 -6 0 -6 -9
0 -25 5 -14 6 -25 2 -25 -4 0 -7 -25 -7 -55 0 -30 4 -55 8 -55 4 0 4 -8 -2
-17 -5 -10 -5 -26 0 -40 5 -14 5 -23 -1 -23 -6 0 -6 -9 0 -25 5 -14 6 -25 2
-25 -4 0 -7 -25 -7 -55 0 -30 4 -55 8 -55 4 0 4 -8 -2 -17 -5 -10 -5 -26 0
-40 5 -14 5 -23 -1 -23 -6 0 -6 -9 0 -25 5 -14 6 -25 2 -25 -4 0 -7 -25 -7
-55 0 -30 4 -55 8 -55 4 0 4 -8 -2 -17 -5 -10 -5 -26 0 -40 5 -14 5 -23 -1
-23 -6 0 -6 -9 0 -25 5 -14 6 -25 2 -25 -4 0 -7 -25 -7 -55 0 -30 3 -55 7 -55
4 0 3 -13 -2 -30 -5 -18 -5 -32 1 -36 6 -4 6 -10 0 -18 -6 -7 -8 -15 -5 -18 3
-3 7 -27 10 -52 14 -141 131 -253 284 -273 19 -2 41 -6 48 -8 6 -3 12 -1 12 3
0 9 42 8 57 -1 7 -4 14 -4 17 1 5 8 114 7 123 -2 2 -2 18 0 34 4 17 5 31 5 35
-1 3 -6 10 -6 17 -1 7 5 23 6 37 2 14 -4 37 -3 53 1 15 4 27 5 27 1 0 -4 18
-7 40 -7 22 0 40 2 40 5 0 8 44 5 57 -3 7 -4 14 -4 16 0 6 9 121 8 136 -1 5
-4 12 -2 15 3 4 5 18 6 34 2 15 -4 39 -4 55 0 15 4 27 3 27 -1 0 -5 14 -5 30
0 17 5 30 6 30 2 0 -4 18 -7 40 -7 22 0 40 2 40 5 0 8 44 5 57 -3 7 -4 14 -4
17 1 5 8 114 7 123 -2 2 -2 18 0 34 4 17 5 31 5 35 -1 3 -6 10 -6 17 -1 7 5
23 6 37 2 14 -4 37 -3 53 1 15 4 27 5 27 1 0 -4 18 -7 40 -7 22 0 40 2 40 5 0
8 44 5 57 -3 7 -4 14 -4 16 0 6 9 121 8 136 -1 5 -4 12 -2 15 3 4 5 18 6 34 2
15 -4 39 -4 55 0 15 4 27 3 27 -1 0 -5 14 -5 30 0 19 5 30 5 30 -1 0 -6 3 -8
8 -6 4 3 36 8 70 11 101 11 184 59 240 142 41 59 57 164 51 334 0 8 0 80 1
160 0 80 0 150 -1 155 -1 6 -1 14 0 18 2 12 2 290 0 302 -1 6 -1 14 0 18 2 12
2 290 0 302 -1 6 -1 14 0 18 2 12 2 290 0 302 -1 6 -1 14 0 18 2 12 2 290 0
302 -1 6 -1 14 0 19 5 25 1 467 -4 510 -11 89 -62 169 -143 225 -34 23 -73 38
-132 47 -19 3 -37 7 -40 9 -3 1 -14 -1 -25 -5 -11 -4 -30 -4 -42 1 -13 5 -25
4 -28 -1 -4 -7 -13 -7 -24 0 -12 6 -22 5 -29 -2 -9 -9 -15 -9 -23 -1 -8 8 -20
8 -35 3 -15 -6 -24 -6 -24 0 0 6 -9 6 -25 0 -14 -5 -25 -6 -25 -2 0 4 -18 7
-40 7 -22 0 -40 -3 -40 -7 0 -4 -11 -3 -25 2 -16 6 -25 6 -25 0 0 -6 -9 -6
-22 -2 -23 9 -76 7 -85 -2 -3 -3 -16 -1 -29 4 -15 6 -26 6 -30 -1 -4 -7 -10
-7 -18 0 -7 6 -15 8 -19 5 -9 -9 -68 -11 -73 -2 -3 4 -15 3 -27 -1 -12 -5 -32
-5 -44 0 -14 5 -23 5 -23 -1 0 -5 -6 -7 -13 -4 -23 8 -97 10 -97 2 0 -4 -10
-4 -23 1 -13 5 -30 5 -39 0 -10 -6 -19 -6 -23 0 -4 7 -15 7 -30 1 -16 -6 -25
-6 -25 0 0 6 -10 6 -26 0 -14 -6 -23 -6 -20 -2 5 9 -69 6 -84 -3 -6 -3 -10 -2
-10 4 0 7 -8 7 -25 1 -14 -5 -27 -5 -30 0 -3 5 -18 5 -35 0 -17 -5 -32 -5 -35
0 -3 5 -16 5 -30 0 -16 -6 -25 -6 -25 0 0 6 -10 6 -26 0 -14 -6 -23 -6 -20 -2
5 9 -69 6 -84 -3 -6 -3 -10 -2 -10 4 0 7 -8 7 -25 1 -13 -5 -27 -6 -29 -1 -3
4 -26 5 -51 1 -25 -4 -48 -3 -51 1 -2 5 -15 4 -27 0 -12 -5 -32 -5 -44 0 -14
5 -23 5 -23 -1 0 -6 -9 -6 -25 0 -17 6 -25 6 -25 -1 0 -6 -5 -7 -11 -4 -16 10
-79 12 -79 2 0 -4 -8 -3 -19 2 -10 6 -20 8 -23 6z m493 -645 c32 3 59 2 59 -3
0 -4 5 -5 10 -2 8 5 70 6 215 5 11 0 74 0 140 0 66 0 122 0 125 -1 3 -1 16 0
30 1 14 1 137 3 273 4 l248 1 6 -24 c3 -14 6 -42 5 -63 -1 -21 -2 -54 -3 -74
0 -19 1 -38 4 -41 3 -3 2 -16 -3 -29 -6 -15 -6 -24 0 -24 6 0 6 -9 1 -23 -5
-13 -5 -30 0 -39 6 -11 5 -19 -1 -23 -7 -4 -7 -12 0 -25 6 -11 6 -21 1 -25 -5
-3 -6 -17 -2 -33 5 -15 4 -37 0 -50 -5 -13 -4 -22 1 -22 6 0 6 -9 0 -25 -6
-16 -6 -25 0 -25 6 0 6 -9 0 -25 -6 -15 -6 -26 0 -30 7 -4 6 -13 0 -25 -7 -13
-7 -21 0 -25 7 -4 7 -12 0 -24 -5 -10 -7 -21 -3 -25 8 -7 7 -112 -1 -125 -4
-5 -2 -12 4 -16 7 -4 7 -12 0 -25 -7 -13 -7 -21 0 -25 7 -4 7 -12 0 -24 -5
-10 -7 -21 -3 -25 8 -7 7 -112 -1 -125 -4 -5 -2 -12 3 -15 5 -3 6 -21 1 -39
-4 -18 -3 -43 1 -55 5 -12 4 -22 -1 -22 -5 0 -5 -12 -1 -28 5 -15 4 -37 0 -50
-5 -13 -4 -22 1 -22 6 0 6 -9 1 -23 -5 -13 -5 -30 0 -39 6 -11 5 -19 -1 -23
-7 -4 -7 -12 0 -25 6 -12 7 -21 0 -25 -5 -3 -7 -12 -4 -19 8 -20 10 -96 4 -96
-4 0 -5 -13 -2 -29 3 -19 -1 -30 -12 -34 -9 -4 -16 -3 -16 1 0 9 -72 8 -86 -1
-6 -3 -16 -2 -24 3 -8 5 -22 5 -32 -1 -12 -6 -18 -6 -18 0 0 6 -11 7 -27 2
-16 -4 -39 -5 -53 -1 -14 4 -37 3 -52 -1 -14 -4 -29 -5 -32 -2 -9 9 -59 9 -78
0 -11 -4 -18 -4 -18 2 0 6 -11 6 -30 1 -17 -5 -30 -5 -30 0 0 5 -13 5 -29 0
-16 -4 -32 -6 -34 -4 -9 9 -117 10 -117 1 0 -4 -5 -5 -11 -2 -13 9 -69 13 -69
6 0 -3 -18 -6 -40 -6 -22 0 -40 3 -40 7 0 4 -12 3 -27 -1 -16 -5 -37 -5 -48
-1 -11 4 -28 4 -37 -1 -10 -6 -19 -5 -23 1 -4 6 -15 6 -30 0 -14 -5 -25 -6
-25 -2 0 9 -114 7 -129 -2 -6 -4 -11 -4 -11 1 0 9 -52 9 -67 0 -6 -4 -15 -1
-20 6 -14 17 -23 57 -13 57 5 0 5 14 0 30 -5 17 -5 30 0 30 5 0 5 13 0 30 -5
17 -5 30 0 30 5 0 5 13 0 30 -5 17 -5 30 0 30 5 0 5 13 0 30 -5 17 -5 30 0 30
5 0 5 13 0 30 -5 17 -5 30 0 30 5 0 5 13 0 30 -5 17 -5 30 0 30 5 0 5 13 0 30
-5 17 -5 30 0 30 5 0 5 13 0 30 -5 17 -5 30 0 30 5 0 5 13 0 30 -5 17 -5 30 0
30 5 0 5 13 0 30 -5 17 -5 30 0 30 5 0 5 13 0 30 -5 17 -5 30 0 30 5 0 5 13 0
30 -5 17 -5 30 0 30 5 0 5 13 0 30 -5 17 -5 30 0 30 5 0 5 13 0 30 -5 17 -5
30 0 30 5 0 5 13 0 30 -5 17 -5 32 0 35 5 3 6 15 0 29 -4 12 -4 29 0 36 5 8 6
18 3 24 -8 11 -7 105 0 113 3 3 2 15 -3 27 -4 13 -5 29 0 36 4 7 4 24 0 39 -4
14 -4 35 0 46 4 11 4 29 0 41 -5 11 -5 27 0 34 4 7 4 26 0 41 -5 16 -5 31 0
34 4 3 4 21 0 40 -4 19 -5 35 -1 35 4 0 5 14 3 32 -4 24 -1 30 9 26 8 -3 23
-2 34 2 11 4 30 4 43 1 13 -4 50 -4 83 -1z"/>
<path d="M6730 9435 c-13 -15 -16 -77 -5 -94 3 -6 2 -11 -4 -11 -6 0 -6 -11
-1 -29 4 -16 6 -32 3 -35 -8 -8 -9 -186 -1 -186 4 0 3 -13 -2 -30 -5 -16 -5
-30 -1 -30 4 0 4 -27 1 -60 -3 -33 -3 -60 1 -60 4 0 4 -13 -1 -30 -5 -16 -6
-30 -2 -30 8 0 7 -68 -1 -76 -3 -3 -2 -17 3 -30 6 -14 6 -26 0 -29 -6 -3 -6
-15 0 -30 6 -15 6 -25 0 -25 -5 0 -5 -12 0 -30 5 -17 5 -30 0 -30 -5 0 -5 -13
0 -30 5 -17 5 -30 0 -30 -5 0 -5 -12 -1 -28 5 -15 5 -37 0 -49 -5 -13 -4 -25
1 -28 6 -4 7 -13 1 -24 -5 -9 -6 -23 -2 -29 4 -7 4 -35 1 -62 -4 -28 -3 -50 1
-50 4 0 4 -13 -1 -30 -5 -16 -6 -30 -2 -30 8 0 7 -68 -1 -76 -3 -3 -2 -17 3
-30 6 -14 6 -26 0 -29 -6 -3 -6 -15 0 -30 6 -15 6 -25 0 -25 -5 0 -5 -12 0
-30 5 -17 5 -30 0 -30 -5 0 -5 -13 0 -30 5 -17 5 -30 0 -30 -5 0 -5 -12 -1
-28 5 -15 5 -37 0 -49 -5 -13 -4 -25 1 -28 6 -4 7 -13 1 -24 -5 -9 -6 -23 -2
-29 4 -7 4 -35 1 -62 -4 -28 -3 -50 1 -50 4 0 4 -13 -1 -30 -5 -16 -6 -30 -2
-30 8 0 7 -68 -1 -76 -3 -3 -2 -17 3 -30 6 -14 6 -26 0 -29 -6 -3 -6 -15 0
-30 6 -15 6 -25 0 -25 -5 0 -5 -12 0 -30 5 -17 5 -30 0 -30 -5 0 -5 -13 0 -30
5 -17 5 -30 0 -30 -5 0 -5 -12 -1 -28 5 -15 5 -37 0 -49 -5 -13 -4 -25 1 -28
6 -4 7 -13 1 -24 -5 -9 -6 -23 -2 -29 4 -7 4 -35 1 -62 -4 -28 -3 -50 1 -50 4
0 4 -13 -1 -30 -5 -16 -6 -30 -2 -30 4 0 8 -30 9 -65 0 -36 7 -72 13 -80 7 -8
9 -15 5 -15 -4 0 -2 -7 5 -15 7 -8 10 -15 6 -15 -9 0 23 -38 68 -82 102 -100
255 -113 393 -34 12 7 191 182 399 389 207 207 380 377 384 377 4 0 180 -172
391 -383 438 -437 431 -431 569 -431 68 1 95 5 134 24 59 28 125 92 151 146
19 40 22 49 29 96 3 15 7 32 10 37 4 5 2 12 -3 16 -6 3 -7 15 -1 29 4 12 4 29
0 36 -5 8 -5 21 0 30 5 9 5 22 0 30 -4 7 -4 24 0 36 6 14 5 26 0 29 -6 4 -7
13 -1 24 6 10 6 23 1 31 -5 8 -5 21 0 30 5 9 5 22 0 30 -5 8 -5 21 0 30 5 9 5
22 0 30 -5 8 -5 21 0 31 5 9 6 19 3 23 -4 4 -6 26 -4 49 6 90 6 117 0 117 -4
0 -3 15 1 34 4 18 3 40 -1 49 -6 9 -5 18 0 21 6 4 6 18 1 36 -5 17 -6 30 -2
30 4 0 7 34 7 75 0 41 -3 75 -6 75 -4 0 -3 15 1 34 4 18 3 40 -1 49 -6 9 -5
18 0 21 6 4 6 18 1 36 -5 17 -6 30 -2 30 8 0 7 89 -1 97 -3 3 -2 16 3 29 6 14
6 26 0 29 -6 4 -7 13 -1 24 6 10 6 23 1 31 -5 8 -5 21 0 30 5 9 5 22 0 30 -5
8 -5 21 0 30 5 9 5 22 0 30 -4 7 -4 24 0 36 6 14 5 26 0 29 -6 4 -7 13 -1 24
6 10 6 23 1 31 -5 8 -5 21 0 30 5 9 5 22 0 30 -5 8 -5 21 0 30 5 9 5 22 0 30
-5 8 -5 21 0 31 5 9 6 19 3 23 -4 4 -6 26 -4 49 6 90 6 117 0 117 -4 0 -3 15
1 34 4 18 3 40 -1 49 -6 9 -5 18 0 21 6 4 6 18 1 36 -5 17 -6 30 -2 30 4 0 7
34 7 75 0 41 -3 75 -6 75 -4 0 -3 15 1 34 4 18 3 40 -1 49 -6 9 -5 18 0 21 6
4 6 18 1 36 -5 17 -6 30 -2 30 8 0 7 88 -1 96 -3 3 -2 18 3 33 4 16 4 34 0 42
-5 7 -7 16 -4 20 2 4 -8 9 -21 12 -14 2 -28 1 -31 -4 -2 -5 -16 -4 -29 1 -17
6 -25 6 -25 -1 0 -6 -5 -7 -11 -4 -15 10 -79 12 -79 3 0 -3 -13 -3 -30 2 -18
5 -30 5 -30 0 0 -6 -9 -6 -22 -1 -28 11 -37 11 -63 1 -11 -4 -29 -4 -40 0 -11
4 -25 3 -32 -2 -7 -6 -14 -5 -18 2 -3 6 -11 8 -16 4 -16 -10 -59 -12 -65 -3
-2 5 -16 4 -29 -1 -14 -5 -25 -6 -25 -2 0 6 -20 7 -63 3 -4 -1 -7 -13 -7 -28
1 -16 1 -86 1 -158 0 -71 0 -138 0 -147 0 -33 0 -108 0 -123 -1 -49 -1 -239
-1 -317 0 -51 0 -186 -1 -301 0 -114 2 -211 6 -216 3 -5 2 -12 -3 -15 -4 -3
-5 -30 -2 -60 3 -31 4 -56 1 -56 -7 0 -6 -99 1 -105 2 -3 1 -29 -2 -60 -3 -30
-4 -58 0 -62 3 -5 3 -36 0 -70 l-5 -63 -225 223 c-263 260 -280 271 -410 272
-125 0 -157 -20 -358 -218 -90 -89 -176 -175 -191 -191 -14 -16 -39 -42 -56
-57 l-30 -29 -6 33 c-3 17 -3 37 1 44 3 7 3 44 0 83 -3 39 -4 73 -2 75 2 2 3
64 3 137 -1 73 -2 139 -2 146 0 6 0 32 0 57 0 25 0 52 0 60 1 36 1 238 1 325
0 52 1 174 1 270 0 97 0 180 -1 185 -2 6 -2 13 -1 18 3 9 3 105 0 115 -1 4 -1
10 0 15 1 9 1 186 -1 207 -1 15 -48 22 -48 7 0 -4 -8 -3 -18 2 -11 6 -24 6
-34 0 -11 -6 -19 -6 -23 1 -4 7 -12 7 -25 0 -12 -6 -21 -7 -25 0 -4 6 -15 6
-30 0 -16 -6 -25 -6 -25 0 0 6 -9 6 -25 0 -14 -5 -25 -6 -25 -2 0 4 -18 7 -40
7 -22 0 -40 -3 -40 -7 0 -4 -11 -3 -25 2 -16 6 -25 6 -25 0 0 -6 -9 -6 -22 -2
-23 9 -76 7 -85 -2 -3 -3 -16 -1 -29 4 -14 6 -26 6 -29 0 -4 -7 -13 -7 -25 0
-13 7 -21 6 -30 -5z"/>
<path d="M339 6246 c-2 -2 -29 -7 -59 -10 -29 -4 -73 -16 -97 -28 -51 -25
-123 -86 -123 -104 0 -7 -4 -14 -10 -16 -5 -1 -19 -29 -30 -61 -20 -57 -20
-72 -18 -2045 l3 -1987 25 -50 c28 -57 96 -128 143 -149 77 -35 103 -36 1255
-36 1128 0 1143 0 1132 19 -7 13 -7 22 0 26 7 4 7 12 0 25 -7 13 -7 21 0 25 7
4 7 12 0 24 -5 10 -6 21 -3 25 9 9 9 65 1 59 -5 -2 -4 7 2 21 6 16 6 26 0 26
-6 0 -6 9 0 25 6 15 6 26 0 30 -6 4 -7 13 -1 23 6 11 6 24 0 34 -5 9 -6 19 -1
22 8 5 7 79 -2 102 -3 7 -1 16 4 19 6 3 6 15 0 30 -5 14 -6 25 -2 25 4 0 7 11
7 25 0 14 -3 25 -7 25 -3 0 -4 10 -1 21 5 19 4 20 -16 10 -11 -7 -21 -8 -21
-4 0 10 -41 10 -57 0 -5 -4 -13 -4 -16 -1 -9 9 -106 10 -100 2 2 -5 -7 -4 -20
1 -16 6 -28 6 -35 -1 -6 -6 -12 -6 -16 1 -4 7 -15 7 -30 1 -13 -5 -27 -6 -30
-3 -9 9 -186 9 -186 0 0 -4 -8 -4 -17 2 -10 5 -26 5 -41 0 -13 -5 -21 -5 -18
0 3 4 -13 5 -34 1 -22 -4 -42 -4 -45 -1 -5 9 -59 6 -74 -4 -6 -3 -11 -3 -11 2
0 4 -27 8 -60 8 -33 0 -60 -4 -60 -8 0 -5 -5 -5 -11 -2 -16 10 -109 12 -109 2
0 -4 -8 -4 -17 2 -10 5 -26 5 -41 0 -13 -5 -21 -6 -19 -1 3 4 -17 7 -43 7 -26
0 -46 -3 -43 -7 2 -5 -7 -4 -20 1 -16 6 -28 6 -35 -1 -6 -6 -12 -6 -16 1 -4 7
-15 7 -30 1 -13 -5 -27 -6 -30 -3 -9 9 -186 9 -186 0 0 -4 -8 -4 -17 2 -10 5
-26 5 -41 0 -13 -5 -21 -5 -18 0 3 4 -13 5 -34 1 -22 -4 -42 -4 -45 -1 -5 9
-59 6 -74 -4 -6 -3 -11 -3 -11 2 0 4 -27 8 -60 8 -33 0 -60 -2 -60 -5 0 -4
-16 -4 -35 -2 -19 2 -32 8 -29 14 3 5 1 15 -6 23 -7 9 -8 15 0 20 7 4 7 12 0
26 -6 11 -7 19 -1 19 5 0 6 14 1 34 -4 19 -4 40 1 47 4 7 3 19 -2 25 -7 8 -7
14 0 18 6 4 7 15 2 29 -5 12 -5 32 0 45 5 13 5 22 -2 22 -6 0 -6 7 1 19 7 14
7 22 0 26 -7 4 -7 11 -2 18 5 7 6 21 2 32 -4 11 -4 30 1 43 5 14 5 22 -2 22
-6 0 -6 7 1 19 7 14 7 22 0 26 -7 4 -7 11 -2 18 5 7 6 21 2 32 -4 11 -4 30 1
43 5 14 5 22 -2 22 -6 0 -6 6 0 18 7 13 7 22 0 29 -8 8 -8 13 0 17 7 4 7 15 1
30 -5 13 -7 26 -4 29 9 9 11 62 2 85 -4 13 -4 22 2 22 6 0 6 9 0 25 -5 14 -6
25 -2 25 9 0 6 65 -3 80 -3 6 -2 10 4 10 7 0 7 8 1 25 -5 14 -6 25 -2 25 4 0
7 25 7 55 0 30 -4 55 -8 55 -4 0 -4 8 2 17 5 10 5 26 0 40 -5 14 -5 23 1 23 6
0 6 9 0 25 -5 14 -6 25 -2 25 4 0 7 25 7 55 0 30 -4 55 -8 55 -4 0 -4 8 2 17
5 10 5 26 0 40 -5 14 -5 23 1 23 6 0 6 9 0 25 -5 14 -6 25 -2 25 4 0 7 25 7
55 0 30 -4 55 -8 55 -4 0 -4 8 2 17 5 10 5 26 0 40 -5 14 -5 23 1 23 6 0 6 9
0 25 -5 14 -6 25 -2 25 4 0 7 25 7 55 0 30 -3 55 -6 55 -4 0 -3 16 1 35 4 19
4 35 -1 35 -5 0 -4 11 1 25 6 16 6 25 0 25 -6 0 -6 9 0 24 5 15 5 27 -2 34 -7
7 -6 16 1 30 8 15 8 23 1 27 -7 4 -7 11 -2 18 5 7 6 21 2 32 -4 11 -4 30 1 43
5 14 5 22 -2 22 -6 0 -6 7 1 19 7 14 7 22 0 26 -7 4 -7 11 -2 18 5 7 6 21 2
32 -4 11 -4 30 1 43 5 14 5 22 -2 22 -6 0 -6 7 1 19 7 14 7 22 0 26 -7 4 -7
11 -2 18 5 7 6 21 2 32 -4 11 -4 30 1 43 5 14 5 22 -2 22 -6 0 -6 6 0 18 7 13
7 22 0 29 -8 8 -8 13 0 17 7 4 7 15 1 30 -5 13 -6 26 -4 29 9 8 9 81 1 94 -4
6 -3 14 3 18 7 4 7 12 0 25 -6 10 -7 21 -3 23 9 6 9 64 0 73 -3 4 -2 15 3 25
7 12 7 20 0 24 -6 4 -7 13 -1 23 6 11 6 24 0 35 -6 9 -6 17 -2 17 9 0 9 107 1
116 -11 11 5 45 21 43 9 -1 18 0 21 1 14 5 80 4 80 -1 0 -4 16 -3 35 1 19 4
35 4 35 0 0 -5 13 -5 29 0 16 4 32 6 35 3 7 -8 264 -5 276 2 6 4 10 2 10 -4 0
-6 11 -6 30 -1 17 5 30 5 30 0 0 -4 16 -4 35 0 19 4 35 4 35 0 0 -5 14 -5 30
0 16 5 30 6 30 2 0 -4 41 -7 90 -7 50 0 90 2 90 5 0 3 25 5 55 5 30 0 55 -3
55 -7 0 -4 13 -3 30 2 16 5 30 5 30 0 0 -4 16 -4 35 0 19 4 35 4 35 0 0 -5 13
-5 29 0 15 4 34 4 42 0 7 -5 16 -7 19 -5 8 5 74 7 128 3 23 -2 42 -1 42 2 0 3
16 5 35 5 19 0 35 -3 35 -7 0 -4 13 -3 30 2 19 5 30 5 30 -1 0 -6 4 -8 8 -5
10 6 81 8 140 4 23 -2 42 -1 42 2 0 3 16 5 35 5 19 0 35 -2 35 -5 0 -7 69 -4
76 3 3 3 13 3 21 0 21 -8 33 16 22 44 -5 14 -5 23 1 23 6 0 6 9 0 25 -5 14 -6
25 -2 25 9 0 8 63 -2 78 -3 6 -2 13 4 17 7 4 7 12 0 25 -6 12 -7 21 0 25 6 4
6 15 0 30 -5 14 -6 25 -2 25 4 0 7 27 7 60 0 33 -3 60 -7 60 -4 0 -3 11 2 25
6 16 6 25 -1 25 -6 0 -6 6 0 18 6 11 6 24 0 35 -6 9 -6 17 -2 17 7 0 8 14 4
78 -1 10 -6 10 -21 2 -11 -6 -20 -7 -20 -3 0 10 -41 10 -57 0 -5 -4 -13 -4
-16 -1 -9 9 -106 10 -100 2 2 -5 -7 -4 -20 1 -16 6 -28 6 -35 -1 -6 -6 -12 -6
-16 0 -4 7 -17 7 -36 2 -17 -5 -30 -6 -30 -2 0 4 -11 7 -25 7 -14 0 -25 -4
-25 -8 0 -5 -5 -5 -10 -2 -16 10 -120 12 -120 2 0 -4 -8 -4 -17 2 -10 5 -26 5
-41 0 -13 -5 -21 -5 -18 0 3 4 -12 5 -34 1 -22 -4 -40 -4 -40 -1 0 8 -65 5
-79 -4 -6 -3 -11 -3 -11 2 0 4 -15 8 -34 8 -19 0 -32 -3 -29 -7 2 -5 -7 -4
-21 2 -16 6 -27 6 -31 -1 -4 -5 -11 -6 -17 -3 -15 10 -108 10 -108 1 0 -4 -8
-4 -17 2 -10 5 -26 5 -41 0 -13 -5 -21 -6 -19 -1 3 4 -17 7 -43 7 -26 0 -46
-3 -43 -7 2 -5 -7 -4 -20 1 -16 6 -28 6 -35 -1 -6 -6 -12 -6 -16 0 -4 7 -17 7
-36 2 -17 -5 -30 -6 -30 -2 0 4 -11 7 -25 7 -14 0 -25 -4 -25 -8 0 -5 -5 -5
-10 -2 -16 10 -120 12 -120 2 0 -4 -8 -4 -17 2 -10 5 -26 5 -41 0 -13 -5 -21
-5 -18 0 3 4 -12 5 -34 1 -22 -4 -40 -4 -40 -1 0 8 -65 5 -79 -4 -6 -3 -11 -3
-11 2 0 4 -15 8 -34 8 -19 0 -32 -3 -29 -7 2 -5 -7 -4 -21 2 -16 6 -27 6 -31
-1 -4 -5 -11 -6 -17 -3 -15 10 -108 10 -108 1 0 -4 -8 -4 -17 2 -10 5 -26 5
-41 0 -13 -5 -21 -6 -19 -1 3 4 -17 7 -43 7 -26 0 -46 -3 -43 -7 2 -5 -7 -4
-21 2 -17 6 -27 6 -32 -1 -4 -7 -10 -7 -18 0 -7 6 -15 9 -17 7z"/>
<path d="M2903 6239 c-13 -5 -23 -14 -24 -21 -4 -68 -3 -88 2 -88 3 0 3 -20
-1 -45 -4 -24 -3 -50 1 -56 4 -7 3 -23 -1 -35 -6 -14 -5 -26 0 -29 6 -4 7 -13
1 -24 -6 -10 -6 -23 -1 -31 5 -8 5 -21 0 -30 -5 -9 -5 -22 0 -30 5 -8 5 -21 0
-30 -5 -9 -5 -22 0 -30 4 -7 4 -24 0 -36 -6 -14 -5 -26 0 -29 6 -4 7 -13 1
-24 -6 -10 -6 -23 -1 -31 5 -8 5 -21 0 -30 -5 -9 -5 -22 0 -30 5 -8 5 -21 0
-30 -5 -9 -5 -22 0 -30 5 -8 5 -21 0 -31 -5 -9 -6 -19 -3 -23 4 -4 6 -26 4
-49 -6 -90 -6 -117 0 -117 4 0 3 -15 -1 -34 -4 -18 -3 -40 1 -49 6 -9 5 -18 0
-21 -6 -4 -6 -18 -1 -36 5 -17 6 -30 2 -30 -4 0 -7 -22 -7 -50 0 -27 3 -50 7
-50 4 0 3 -13 -2 -30 -5 -16 -6 -30 -2 -30 8 0 7 -68 -1 -76 -3 -3 -2 -17 3
-30 6 -14 6 -26 0 -29 -6 -3 -6 -15 0 -30 6 -15 6 -25 0 -25 -5 0 -5 -12 0
-30 5 -17 5 -30 0 -30 -5 0 -5 -13 0 -30 5 -17 5 -30 0 -30 -5 0 -5 -12 -1
-28 5 -15 5 -37 0 -49 -5 -13 -4 -25 1 -28 6 -4 7 -13 1 -24 -5 -9 -6 -23 -2
-29 4 -7 4 -35 1 -62 -4 -28 -3 -50 1 -50 4 0 4 -13 -1 -30 -5 -16 -6 -30 -2
-30 8 0 7 -68 -1 -76 -3 -3 -2 -17 3 -30 6 -14 6 -26 0 -29 -6 -3 -6 -15 0
-30 6 -15 6 -25 0 -25 -5 0 -5 -12 0 -30 5 -17 5 -30 0 -30 -5 0 -5 -13 0 -30
5 -17 5 -30 0 -30 -5 0 -5 -12 -1 -28 5 -15 5 -37 0 -49 -5 -13 -4 -25 1 -28
6 -4 7 -13 1 -24 -5 -9 -6 -23 -2 -29 4 -7 4 -35 1 -62 -4 -28 -3 -50 1 -50 4
0 4 -13 -1 -30 -5 -16 -6 -30 -2 -30 8 0 7 -68 -1 -76 -3 -3 -2 -17 3 -30 6
-14 6 -26 0 -29 -6 -3 -6 -15 0 -30 6 -15 6 -25 0 -25 -5 0 -5 -12 0 -30 5
-17 5 -30 0 -30 -5 0 -5 -13 0 -30 5 -17 5 -30 0 -30 -5 0 -5 -12 -1 -28 5
-15 5 -37 0 -49 -5 -13 -4 -25 1 -28 6 -4 7 -13 1 -24 -5 -9 -6 -23 -2 -29 4
-7 4 -35 1 -62 -4 -28 -3 -50 1 -50 4 0 4 -13 -1 -30 -5 -16 -6 -30 -2 -30 8
0 7 -68 -1 -76 -3 -3 -2 -17 3 -30 6 -14 6 -26 0 -29 -6 -3 -6 -15 0 -30 6
-15 6 -25 0 -25 -5 0 -5 -12 0 -30 5 -17 5 -30 0 -30 -5 0 -5 -13 0 -30 5 -17
5 -30 0 -30 -5 0 -5 -12 -1 -28 5 -15 5 -37 0 -49 -5 -13 -4 -25 1 -28 6 -4 7
-13 1 -24 -5 -9 -6 -23 -2 -30 5 -7 5 -29 1 -50 -4 -21 -3 -47 1 -58 4 -11 3
-26 -1 -33 -5 -8 -4 -22 1 -31 5 -11 5 -20 0 -24 -6 -3 -6 -17 -1 -35 5 -17 5
-30 0 -30 -5 0 -5 -13 0 -30 5 -17 5 -30 0 -30 -5 0 -5 -13 0 -29 4 -16 6 -32
3 -35 -8 -8 -9 -186 -1 -186 4 0 3 -13 -2 -30 -5 -16 -5 -30 0 -30 4 0 6 -8 4
-17 -7 -30 -9 -153 -3 -153 3 0 4 -11 1 -25 l-4 -25 321 0 c299 0 321 1 322
18 0 9 1 34 2 55 1 20 -1 37 -4 37 -3 0 -3 20 1 44 3 24 3 52 -1 63 -4 11 -3
26 1 33 5 8 4 22 -1 31 -5 11 -5 20 0 24 6 3 6 17 1 35 -5 17 -5 30 0 30 5 0
5 13 0 30 -5 17 -5 30 0 30 5 0 5 13 0 29 -4 16 -6 32 -3 35 8 8 9 186 1 186
-4 0 -3 14 2 30 5 17 5 30 0 30 -4 0 -6 8 -4 17 7 31 9 153 3 153 -4 0 -3 15
1 34 4 18 3 40 -1 49 -6 9 -5 18 0 21 6 4 6 18 1 36 -5 17 -6 30 -2 30 8 0 7
89 -1 97 -3 3 -2 16 3 29 6 14 6 26 0 29 -6 4 -7 13 -1 24 6 10 6 23 1 31 -5
8 -5 21 0 30 5 9 5 22 0 30 -5 8 -5 21 0 30 5 9 5 22 0 30 -4 7 -4 24 0 36 6
14 5 26 0 29 -6 4 -7 13 -1 24 6 10 6 23 1 31 -5 8 -5 21 0 30 5 9 5 22 0 30
-5 8 -5 21 0 30 5 9 5 22 0 30 -5 8 -5 21 0 31 5 9 6 19 3 23 -4 4 -6 26 -4
49 6 90 6 117 0 117 -4 0 -3 15 1 34 4 18 3 40 -1 49 -6 9 -5 18 0 21 6 4 6
18 1 36 -5 17 -6 30 -2 30 4 0 7 34 7 75 0 41 -3 75 -7 75 -4 0 -3 11 2 24 5
13 7 26 5 27 -2 2 14 4 36 4 21 0 39 -2 39 -5 0 -3 26 -4 57 -2 32 1 68 2 81
2 29 -1 44 0 125 1 38 0 71 -2 73 -4 3 -3 21 -1 40 3 18 4 34 4 34 0 0 -4 15
-4 34 0 19 4 39 4 45 1 6 -4 34 -5 63 -1 29 3 67 3 83 0 17 -3 45 -3 63 1 17
4 32 3 32 -1 0 -4 15 -4 34 0 19 4 40 4 47 -1 7 -4 16 -6 20 -3 4 2 38 4 76 4
37 0 100 0 138 1 118 1 143 -2 155 -20 5 -9 5 -22 -1 -33 -7 -12 -6 -18 1 -18
7 0 8 -6 1 -18 -6 -11 -6 -24 0 -35 6 -9 6 -17 2 -17 -4 0 -8 -11 -8 -25 0
-14 4 -25 8 -25 4 0 3 -8 -2 -18 -6 -11 -6 -24 0 -35 6 -9 6 -17 2 -17 -4 0
-8 -38 -8 -85 0 -47 2 -85 5 -85 7 0 4 -66 -5 -79 -3 -6 -1 -11 5 -11 8 0 8
-6 0 -20 -8 -14 -8 -20 0 -20 8 0 8 -6 0 -20 -8 -14 -8 -20 0 -20 8 0 8 -6 0
-20 -8 -14 -8 -20 0 -20 8 0 8 -6 0 -20 -8 -14 -8 -20 0 -20 8 0 8 -6 0 -20
-8 -14 -8 -20 0 -20 8 0 8 -6 0 -20 -8 -14 -8 -20 0 -20 7 0 8 -6 2 -17 -9
-20 -8 -54 2 -71 3 -6 2 -13 -3 -17 -7 -4 -7 -15 -1 -30 6 -15 6 -25 0 -25 -5
0 -5 -12 0 -29 4 -15 4 -34 0 -42 -5 -7 -4 -21 1 -31 6 -12 6 -18 0 -18 -7 0
-7 -8 -1 -24 5 -13 6 -27 3 -30 -9 -9 -10 -56 -1 -56 4 0 3 -11 -2 -25 -6 -15
-6 -26 1 -30 6 -4 6 -13 0 -23 -6 -10 -6 -23 0 -34 6 -10 5 -19 -1 -23 -7 -4
-7 -13 0 -26 6 -10 7 -19 3 -19 -4 0 -8 -13 -8 -30 0 -16 3 -30 6 -30 3 0 3
-23 -1 -50 -4 -28 -3 -53 1 -56 5 -3 4 -16 -1 -29 -6 -17 -6 -25 1 -25 6 0 7
-5 4 -11 -10 -16 -12 -69 -3 -69 4 0 3 -11 -2 -25 -6 -15 -6 -26 0 -30 6 -4 7
-13 1 -24 -5 -9 -6 -23 -1 -31 4 -7 4 -24 0 -36 -6 -14 -5 -26 0 -29 7 -4 6
-13 0 -25 -7 -13 -7 -21 0 -25 7 -5 8 -11 1 -19 -6 -7 -6 -17 -1 -26 5 -9 5
-19 -1 -26 -7 -8 -6 -14 1 -19 6 -4 7 -12 1 -24 -6 -10 -6 -23 -1 -31 5 -8 5
-21 0 -30 -5 -9 -5 -22 0 -30 5 -9 5 -19 -1 -26 -7 -8 -6 -14 1 -19 8 -5 8
-10 0 -20 -7 -8 -7 -15 -1 -19 6 -4 6 -18 1 -36 -5 -17 -5 -30 0 -30 5 0 7 -7
4 -15 -5 -13 34 -15 314 -15 346 0 334 -2 323 55 -4 17 -4 53 -1 80 3 28 2 74
-1 103 -3 29 -3 54 -1 57 7 7 8 105 1 105 -3 0 -3 20 1 45 4 24 4 49 0 56 -4
6 -4 26 0 44 4 18 4 38 0 45 -4 7 -4 27 0 46 4 18 6 35 3 37 -4 5 -5 147 -1
265 2 39 -1 72 -5 72 -5 0 -5 4 -2 10 7 12 10 248 3 256 -3 2 -2 21 2 42 3 20
3 48 0 62 -4 14 -4 34 0 44 3 11 3 39 0 63 -4 23 -4 43 -1 43 5 0 6 89 1 110
-2 9 0 181 3 258 1 39 -2 72 -6 72 -5 0 -5 5 -2 10 4 6 6 64 5 130 0 66 -1
128 0 138 0 20 -1 103 -2 111 0 3 0 8 1 11 5 13 5 110 1 110 -3 0 -4 27 -4 60
4 141 -59 248 -183 310 -39 19 -139 34 -210 31 -7 -1 -20 -1 -28 -1 -8 0 -22
0 -30 0 -8 0 -23 0 -32 0 -10 0 -27 0 -38 0 -11 -1 -24 -1 -30 -1 -5 0 -39 0
-75 0 -36 1 -74 1 -85 1 -22 1 -20 1 -91 -1 -28 -1 -55 1 -60 4 -6 3 -16 2
-24 -3 -7 -4 -24 -4 -36 0 -14 6 -26 5 -29 0 -3 -5 -18 -5 -35 0 -19 5 -30 5
-30 -1 0 -6 -5 -7 -10 -4 -6 4 -41 6 -78 6 -37 -1 -76 -1 -87 -1 -11 1 -24 1
-30 1 -5 0 -34 -1 -63 -2 -29 -1 -55 1 -58 4 -4 3 -14 2 -23 -3 -10 -5 -23 -5
-31 0 -8 5 -21 5 -30 0 -9 -5 -22 -5 -30 0 -7 4 -23 5 -34 1 -12 -4 -32 -5
-46 -1 -14 3 -38 3 -55 0 -16 -3 -41 -3 -55 0 -14 4 -35 3 -47 -1 -12 -5 -25
-4 -28 1 -3 5 -18 5 -34 0 -15 -4 -34 -4 -41 0 -7 5 -23 4 -36 0 -12 -5 -25
-6 -29 -2 -3 3 -16 7 -28 7 -15 0 -22 6 -21 18 1 9 -2 17 -6 17 -5 0 -5 13 0
29 4 16 5 32 2 36 -3 3 -5 25 -3 48 6 90 6 117 0 117 -4 0 -3 15 1 34 4 18 3
40 -1 49 -6 9 -5 18 0 21 6 4 6 18 1 36 -5 17 -6 30 -2 30 4 0 7 23 7 50 0 28
-3 50 -7 50 -4 0 -3 14 2 30 5 17 6 30 2 30 -8 0 -7 68 1 76 3 3 2 17 -3 30
-6 14 -6 26 0 29 6 3 6 15 0 30 -6 15 -6 25 0 25 5 0 5 12 0 30 -5 17 -5 30 0
30 5 0 5 13 0 30 -5 17 -5 30 0 30 5 0 5 12 1 28 -5 15 -5 37 0 49 5 13 4 25
-1 28 -6 4 -7 13 -1 24 5 9 6 23 2 29 -4 7 -4 35 -1 62 4 28 3 50 -1 50 -4 0
-4 14 1 30 5 17 6 30 2 30 -8 0 -7 68 1 76 3 3 2 17 -3 30 -6 14 -6 24 0 24 5
0 5 12 0 30 -5 17 -5 30 0 30 5 0 5 13 0 30 -5 17 -5 30 0 30 5 0 5 13 0 30
-5 17 -5 30 0 30 11 0 1 38 -12 46 -14 9 -108 11 -108 3 0 -4 -18 -3 -40 1
-22 4 -37 3 -34 -1 3 -5 -6 -5 -20 1 -16 6 -27 6 -31 -1 -4 -5 -11 -6 -17 -3
-15 10 -108 10 -108 1 0 -4 -8 -4 -17 2 -10 5 -26 5 -40 0 -14 -5 -23 -5 -23
1 0 6 -9 6 -24 0 -13 -5 -27 -6 -30 -3 -9 10 -56 10 -56 0 0 -4 -8 -4 -17 1
-10 6 -28 6 -40 1z"/>
<path d="M12166 6237 c-4 -9 -8 -23 -10 -31 -3 -7 0 -18 6 -24 6 -6 6 -12 -1
-16 -7 -5 -7 -15 -1 -31 6 -16 6 -25 0 -25 -6 0 -6 -9 0 -25 5 -14 6 -25 2
-25 -4 0 -7 -25 -7 -55 0 -30 3 -55 6 -55 4 0 3 -16 -1 -35 -4 -19 -4 -35 1
-35 5 0 4 -11 -1 -25 -6 -16 -6 -25 0 -25 6 0 6 -9 0 -24 -5 -15 -5 -27 2 -34
7 -7 6 -16 -1 -30 -8 -15 -8 -23 -1 -27 7 -4 7 -11 2 -18 -5 -7 -6 -21 -2 -32
4 -11 4 -30 -1 -42 -5 -15 -5 -23 2 -23 6 0 6 -7 -1 -19 -7 -14 -7 -22 0 -26
7 -4 7 -11 2 -18 -5 -7 -6 -21 -2 -32 4 -11 4 -30 -1 -42 -5 -15 -5 -23 2 -23
6 0 6 -7 -1 -19 -7 -14 -7 -22 0 -26 7 -4 7 -11 2 -18 -5 -7 -6 -21 -2 -32 4
-11 4 -30 -1 -42 -5 -15 -5 -23 2 -23 6 0 6 -7 -1 -19 -7 -14 -7 -22 0 -26 7
-4 7 -11 2 -18 -5 -7 -6 -21 -2 -32 4 -11 4 -30 -1 -42 -5 -15 -5 -23 2 -23 6
0 6 -7 -1 -19 -7 -14 -7 -22 0 -26 7 -4 7 -11 2 -18 -5 -7 -6 -21 -2 -32 4
-11 4 -30 -1 -42 -5 -15 -5 -23 2 -23 6 0 6 -7 -1 -19 -7 -14 -7 -22 0 -26 7
-4 7 -11 2 -18 -5 -7 -6 -21 -2 -32 4 -11 4 -30 -1 -42 -5 -15 -5 -23 2 -23 6
0 6 -7 -1 -19 -7 -14 -7 -22 0 -26 7 -4 7 -11 2 -18 -5 -7 -6 -21 -2 -32 4
-11 4 -30 -1 -42 -5 -15 -5 -23 2 -23 6 0 6 -6 0 -18 -7 -13 -7 -22 0 -29 8
-8 8 -13 0 -17 -7 -4 -7 -15 -1 -30 5 -13 7 -26 4 -29 -9 -9 -11 -62 -2 -84 4
-14 4 -23 -2 -23 -6 0 -6 -9 0 -25 5 -14 6 -25 2 -25 -9 0 -6 -65 3 -80 3 -6
2 -10 -4 -10 -7 0 -7 -8 -1 -25 5 -14 6 -25 2 -25 -4 0 -7 -25 -7 -55 0 -30 4
-55 8 -55 4 0 4 -8 -2 -17 -5 -10 -5 -26 0 -40 5 -14 5 -23 -1 -23 -6 0 -6 -9
0 -25 5 -14 6 -25 2 -25 -4 0 -7 -25 -7 -55 0 -30 4 -55 8 -55 4 0 4 -8 -2
-17 -5 -10 -5 -26 0 -40 5 -14 5 -23 -1 -23 -6 0 -6 -9 0 -25 5 -14 6 -25 2
-25 -4 0 -7 -25 -7 -55 0 -30 4 -55 8 -55 4 0 4 -8 -2 -17 -5 -10 -5 -26 0
-40 5 -14 5 -23 -1 -23 -6 0 -6 -9 0 -25 5 -14 6 -25 2 -25 -4 0 -7 -25 -7
-55 0 -30 3 -55 6 -55 4 0 3 -16 -1 -35 -4 -19 -4 -35 1 -35 5 0 4 -11 -1 -25
-6 -16 -6 -25 0 -25 6 0 6 -9 0 -24 -5 -15 -5 -27 2 -34 7 -7 6 -16 -1 -30 -8
-15 -8 -23 -1 -27 7 -4 7 -11 2 -18 -5 -7 -6 -21 -2 -32 4 -11 4 -30 -1 -42
-5 -15 -5 -23 2 -23 6 0 6 -7 -1 -19 -7 -14 -7 -22 0 -26 7 -4 7 -11 2 -18 -5
-7 -6 -21 -2 -32 4 -11 4 -30 -1 -42 -5 -15 -5 -23 2 -23 6 0 6 -7 -1 -19 -7
-14 -7 -22 0 -26 7 -4 7 -11 2 -18 -5 -7 -6 -21 -2 -32 4 -11 4 -30 -1 -42 -5
-15 -5 -23 2 -23 6 0 6 -6 0 -18 -7 -13 -7 -22 0 -29 8 -8 8 -13 0 -17 -7 -4
-7 -15 -1 -30 5 -13 7 -26 4 -29 -8 -8 -10 -88 -2 -93 4 -3 3 -16 -2 -29 -5
-14 -6 -25 -1 -25 4 0 6 -11 3 -25 -4 -23 -20 -31 -47 -25 -29 6 -67 5 -71 -2
-3 -5 -13 -4 -22 1 -9 5 -26 5 -40 0 -13 -5 -21 -6 -19 -1 3 4 -8 7 -24 7 -16
0 -29 -4 -29 -8 0 -5 -5 -5 -11 -2 -16 10 -109 12 -109 2 0 -4 -8 -4 -17 2
-10 5 -26 5 -41 0 -13 -5 -21 -6 -19 -1 3 4 -17 7 -43 7 -26 0 -46 -3 -43 -7
2 -5 -7 -4 -20 1 -16 6 -28 6 -35 -1 -6 -6 -12 -6 -16 1 -4 7 -15 7 -30 1 -13
-5 -27 -6 -30 -3 -9 9 -186 9 -186 0 0 -4 -8 -4 -17 2 -10 5 -26 5 -41 0 -13
-5 -21 -5 -18 0 3 4 -13 5 -34 1 -22 -4 -42 -4 -45 -1 -5 9 -59 6 -74 -4 -6
-3 -11 -3 -11 2 0 4 -27 8 -60 8 -33 0 -60 -3 -60 -7 0 -4 -10 -4 -22 1 -13 4
-28 6 -34 4 -7 -2 -14 10 -16 27 -3 16 -1 30 3 30 4 0 5 10 3 22 -6 26 -5 110
1 117 2 2 0 11 -5 20 -5 10 -5 23 0 31 5 8 5 21 0 30 -5 9 -5 22 0 30 5 8 5
21 0 30 -5 9 -5 22 0 30 5 8 5 21 0 30 -5 9 -5 22 0 30 5 8 5 21 0 30 -5 9 -5
22 0 30 5 8 5 21 0 30 -5 9 -5 22 0 30 5 8 5 21 0 30 -5 9 -5 22 0 30 5 8 5
21 0 30 -5 9 -5 22 0 30 5 8 5 21 0 30 -5 9 -5 22 0 30 5 8 5 21 0 30 -5 9 -5
22 0 30 4 7 4 23 0 36 -5 12 -6 25 -3 28 8 8 9 76 1 76 -4 0 -3 14 2 30 5 17
5 30 0 30 -5 0 -5 13 0 30 5 17 5 30 0 30 -5 0 -5 13 0 30 5 17 5 30 0 30 -5
0 -5 13 0 30 5 17 5 30 0 30 -5 0 -5 13 0 30 5 17 5 30 1 30 -5 0 -5 15 -2 33
4 17 4 47 0 65 -4 17 -3 32 1 32 5 0 5 13 0 29 -4 15 -4 34 0 41 4 7 4 26 0
41 -5 16 -5 31 0 34 4 3 4 20 0 39 -11 49 -2 56 68 53 34 -1 62 0 62 3 0 5 82
4 105 0 6 -2 15 -1 20 0 21 4 116 1 124 -5 5 -3 12 -1 15 4 3 5 21 6 38 2 18
-4 44 -5 58 -4 14 2 35 3 48 3 84 -1 100 2 106 16 3 7 1 16 -4 19 -5 3 -6 15
0 29 4 12 4 29 0 36 -5 8 -5 21 0 30 5 9 5 22 0 30 -5 8 -5 21 0 30 5 9 5 22
0 30 -5 8 -5 21 0 30 5 9 5 22 0 30 -5 8 -5 21 0 30 5 9 5 22 0 30 -5 8 -5 21
0 30 5 9 5 22 0 30 -5 8 -5 21 0 30 5 9 5 22 0 30 -5 8 -5 21 0 30 5 9 5 22 0
29 -4 8 -4 27 0 42 5 16 5 29 1 29 -4 0 -7 10 -7 22 1 13 -5 23 -11 24 -7 1
-16 2 -20 4 -14 4 -134 0 -142 -4 -4 -3 -13 -1 -21 4 -8 5 -21 5 -30 0 -9 -5
-22 -5 -29 -1 -7 5 -29 5 -49 1 -20 -3 -48 -3 -62 0 -14 4 -35 3 -47 -1 -12
-5 -25 -4 -28 1 -3 5 -18 5 -34 0 -15 -4 -34 -4 -42 0 -7 5 -20 5 -29 0 -9 -5
-22 -5 -28 -1 -7 4 -35 5 -62 1 -27 -4 -55 -3 -62 1 -6 4 -19 4 -28 -1 -9 -5
-22 -5 -30 0 -8 5 -21 5 -30 0 -9 -5 -22 -5 -30 0 -7 4 -23 4 -36 0 -12 -5
-24 -6 -27 -3 -10 10 -117 2 -172 -12 -34 -8 -75 -28 -75 -36 0 -5 -6 -9 -13
-9 -19 0 -83 -76 -107 -127 -11 -24 -22 -66 -24 -94 -2 -27 -6 -53 -9 -56 -4
-3 -2 -14 3 -24 7 -11 7 -20 0 -24 -5 -3 -6 -15 -1 -28 5 -12 5 -32 0 -44 -5
-14 -5 -23 2 -23 6 0 6 -7 -1 -19 -7 -14 -7 -22 0 -26 7 -4 7 -11 2 -18 -5 -7
-6 -21 -2 -32 4 -11 4 -30 -1 -42 -5 -15 -5 -23 2 -23 6 0 6 -7 -1 -19 -7 -14
-7 -22 0 -26 7 -4 7 -11 2 -18 -5 -7 -6 -21 -2 -32 4 -11 4 -30 -1 -42 -5 -15
-5 -23 2 -23 6 0 6 -7 -1 -19 -7 -14 -7 -22 0 -26 7 -4 7 -11 2 -18 -5 -7 -6
-21 -2 -32 4 -11 4 -30 -1 -42 -5 -15 -5 -23 2 -23 6 0 6 -7 -1 -19 -7 -14 -7
-22 0 -26 7 -4 7 -11 2 -18 -5 -7 -6 -21 -2 -32 4 -11 4 -30 -1 -42 -5 -15 -5
-23 2 -23 6 0 6 -7 -1 -19 -7 -14 -7 -22 0 -26 7 -4 7 -11 2 -18 -5 -7 -6 -21
-2 -32 4 -11 4 -30 -1 -42 -5 -15 -5 -23 2 -23 6 0 6 -7 -1 -19 -7 -14 -7 -22
0 -26 7 -4 7 -11 2 -18 -5 -7 -6 -21 -2 -32 4 -11 4 -30 -1 -42 -5 -15 -5 -23
2 -23 6 0 6 -7 -1 -19 -7 -14 -7 -22 0 -26 7 -4 7 -11 2 -18 -5 -7 -6 -21 -2
-32 4 -11 4 -30 -1 -42 -5 -15 -5 -23 2 -23 6 0 6 -7 -1 -19 -7 -14 -7 -22 0
-26 7 -4 7 -11 2 -18 -5 -7 -6 -21 -2 -32 4 -11 4 -30 -1 -42 -5 -15 -5 -23 2
-23 6 0 6 -7 -1 -19 -7 -14 -7 -22 0 -26 7 -4 7 -11 2 -18 -5 -7 -6 -21 -2
-32 4 -11 4 -30 -1 -42 -5 -15 -5 -23 2 -23 6 0 6 -6 0 -18 -7 -13 -7 -22 0
-29 8 -8 8 -13 0 -17 -7 -4 -7 -15 -1 -30 5 -13 7 -26 4 -29 -9 -9 -11 -62 -2
-84 4 -14 4 -23 -2 -23 -6 0 -6 -9 0 -25 5 -14 6 -25 2 -25 -9 0 -6 -65 3 -80
3 -6 2 -10 -4 -10 -7 0 -7 -8 -1 -25 5 -14 6 -25 2 -25 -4 0 -7 -25 -7 -55 0
-30 3 -55 7 -55 4 0 3 -13 -2 -30 -5 -18 -5 -32 1 -36 6 -4 6 -10 0 -18 -6 -7
-8 -15 -5 -18 3 -3 7 -27 10 -52 9 -91 83 -199 164 -239 73 -37 113 -38 1145
-35 l1010 3 54 28 c74 38 135 108 161 181 20 59 20 76 20 2163 l0 2103 -22 1
c-13 0 -39 1 -60 2 -20 1 -34 -1 -31 -5 2 -5 -6 -4 -19 1 -13 5 -33 5 -45 0
-13 -5 -23 -5 -23 1 0 5 -13 5 -30 0 -16 -5 -30 -6 -30 -2 0 4 -40 7 -89 7
-49 0 -87 -3 -84 -7 2 -5 -7 -4 -21 2 -16 6 -27 6 -31 0 -4 -6 -13 -7 -24 -1
-10 6 -23 6 -31 1 -8 -5 -21 -5 -30 0 -9 5 -22 5 -30 0 -9 -6 -17 -5 -22 3 -5
8 -9 6 -12 -6z"/>
<path d="M6087 4643 c-3 -3 -26 -7 -51 -9 -25 -2 -65 -12 -88 -23 -50 -23
-128 -89 -128 -108 0 -7 -4 -13 -9 -13 -10 0 -38 -73 -44 -117 -3 -17 -8 -37
-12 -42 -3 -6 -1 -11 5 -11 7 0 8 -6 0 -19 -7 -14 -7 -22 0 -26 7 -4 7 -11 2
-18 -5 -7 -6 -21 -2 -32 4 -11 4 -30 -1 -42 -5 -15 -5 -23 2 -23 6 0 6 -7 -1
-19 -7 -14 -7 -22 0 -26 7 -4 7 -11 2 -18 -5 -7 -6 -21 -2 -32 4 -11 4 -30 -1
-42 -5 -15 -5 -23 2 -23 6 0 6 -6 0 -18 -7 -13 -7 -22 0 -29 8 -8 8 -13 0 -17
-7 -4 -7 -15 -1 -30 5 -13 7 -26 4 -28 -8 -9 -11 -67 -3 -79 4 -7 5 -17 2 -23
-9 -14 -9 -65 -1 -59 5 2 4 -7 -2 -21 -6 -16 -6 -26 0 -26 6 0 6 -9 0 -25 -6
-15 -6 -26 0 -30 6 -4 7 -13 1 -24 -6 -10 -6 -23 -1 -31 5 -8 6 -18 3 -24 -9
-14 -9 -65 -1 -59 5 2 4 -7 -2 -21 -6 -16 -6 -26 0 -26 6 0 6 -9 0 -25 -6 -15
-6 -26 0 -30 6 -4 7 -13 1 -24 -6 -10 -6 -23 -1 -31 5 -8 6 -18 3 -24 -9 -14
-9 -65 -1 -59 5 2 4 -7 -2 -21 -6 -16 -6 -26 0 -26 6 0 6 -9 0 -25 -6 -16 -6
-25 0 -25 6 0 6 -9 0 -25 -6 -15 -6 -26 0 -30 7 -4 6 -13 0 -25 -7 -13 -7 -21
0 -25 6 -4 7 -13 1 -23 -6 -11 -6 -24 0 -35 6 -9 6 -17 2 -17 -9 0 -9 -107 0
-116 4 -4 2 -15 -3 -25 -7 -12 -7 -20 0 -24 6 -4 7 -13 1 -23 -6 -11 -6 -24 0
-35 6 -9 6 -17 2 -17 -8 0 -10 -107 -1 -115 3 -3 2 -26 -2 -50 -4 -25 -3 -48
2 -51 5 -3 5 -11 -1 -18 -6 -7 -6 -17 -1 -26 5 -8 6 -18 3 -24 -9 -14 -9 -67
0 -73 4 -2 3 -13 -3 -23 -7 -13 -7 -21 0 -25 6 -4 7 -13 1 -23 -6 -11 -6 -24
0 -35 6 -9 6 -17 2 -17 -9 0 -9 -107 0 -116 4 -4 2 -14 -3 -24 -5 -10 -7 -20
-3 -24 3 -3 7 -24 9 -46 2 -22 7 -46 11 -53 4 -6 8 -17 9 -23 6 -40 90 -129
150 -160 64 -34 122 -35 1139 -32 l1010 3 54 28 c76 39 136 107 162 184 11 35
18 67 14 73 -3 5 -3 10 2 10 4 0 7 33 5 72 -1 40 -2 79 -2 86 0 6 0 19 0 27 0
8 0 22 0 30 0 8 0 22 0 30 0 8 0 22 0 30 0 8 0 22 0 30 0 8 0 22 0 30 0 8 0
22 0 30 0 8 0 22 0 30 0 8 0 22 0 30 0 8 0 38 -1 65 -1 28 1 53 4 56 3 3 1 19
-3 35 -5 16 -5 31 0 34 4 3 4 20 0 39 -4 19 -4 40 0 46 4 7 4 26 0 41 -5 16
-5 31 0 34 4 3 4 20 0 39 -4 19 -4 40 0 46 4 7 4 26 0 41 -5 16 -5 31 0 34 4
3 4 20 0 39 -4 19 -4 40 0 46 4 7 4 25 0 41 -5 15 -6 30 -2 33 7 8 5 112 -2
125 -4 5 -2 12 3 15 6 4 6 18 1 36 -5 17 -5 30 0 30 5 0 5 13 0 30 -5 17 -5
30 0 30 5 0 5 13 0 30 -5 17 -5 30 0 30 5 0 5 13 0 30 -5 17 -5 30 0 30 5 0 5
13 0 30 -5 17 -5 30 0 30 5 0 5 13 0 30 -5 17 -5 30 0 30 5 0 5 13 0 30 -5 17
-5 30 0 30 5 0 5 13 0 30 -5 17 -5 30 0 30 5 0 5 13 0 30 -5 17 -5 30 0 30 5
0 5 13 0 30 -5 17 -5 30 0 30 5 0 5 13 0 30 -5 17 -5 30 0 30 5 0 5 13 0 30
-5 17 -5 30 0 30 5 0 5 13 0 30 -5 17 -5 30 0 30 5 0 5 13 0 30 -5 17 -5 30 0
30 5 0 5 13 0 30 -5 17 -5 30 0 30 5 0 5 13 0 30 -5 19 -5 30 1 30 6 0 8 4 5
9 -3 5 -8 38 -11 75 -12 166 -134 283 -303 293 -43 2 -83 4 -89 4 -7 -1 -20
-1 -28 -1 -8 0 -22 0 -30 0 -8 0 -23 0 -32 0 -10 0 -27 0 -38 0 -11 -1 -24 -1
-30 -1 -5 0 -39 0 -75 0 -36 1 -74 1 -85 1 -22 1 -20 1 -91 -1 -28 -1 -55 1
-60 4 -6 3 -16 2 -24 -3 -7 -4 -24 -4 -36 0 -14 6 -26 5 -29 0 -3 -5 -18 -5
-35 0 -19 5 -30 5 -30 -1 0 -6 -5 -7 -10 -4 -6 4 -41 6 -78 6 -37 -1 -76 -1
-87 -1 -11 1 -27 1 -35 1 -8 -1 -28 -1 -45 0 -16 0 -37 0 -45 -1 -8 0 -24 0
-35 0 -22 1 -20 1 -91 -1 -28 -1 -55 1 -60 4 -6 3 -16 2 -24 -3 -7 -4 -24 -4
-36 0 -14 6 -26 5 -29 0 -3 -5 -18 -5 -35 0 -19 5 -30 5 -30 -1 0 -6 -5 -7
-10 -4 -6 4 -41 6 -78 6 -37 -1 -76 -1 -87 -1 -11 1 -27 1 -35 1 -8 -1 -28 -1
-45 0 -16 0 -37 0 -45 -1 -8 0 -24 0 -35 0 -22 1 -20 1 -91 -1 -28 -1 -55 1
-60 4 -6 3 -16 2 -24 -3 -7 -4 -23 -4 -36 0 -12 5 -24 6 -27 3z m365 -648 c4
5 33 5 161 5 9 0 23 0 30 1 6 0 23 0 37 -1 14 -1 53 -1 87 0 34 1 67 -1 73 -5
5 -3 10 -3 10 2 0 7 75 9 105 3 6 -2 15 -1 20 0 21 4 116 1 124 -5 5 -3 12 -1
15 4 3 5 21 6 38 2 18 -4 44 -5 58 -4 14 2 35 3 48 3 26 0 36 0 115 1 33 0 61
-2 64 -5 3 -2 15 -1 27 4 13 4 29 4 36 0 8 -5 21 -5 29 0 8 4 25 4 38 -1 12
-4 24 -5 27 -1 2 4 22 6 44 4 36 -4 39 -6 40 -38 1 -19 2 -40 3 -46 0 -7 -1
-39 -2 -70 -2 -32 0 -60 3 -64 4 -3 3 -16 -2 -29 -5 -13 -6 -25 -4 -28 5 -5 6
-37 2 -134 -1 -24 1 -45 5 -49 3 -3 2 -16 -3 -29 -5 -13 -6 -25 -4 -28 5 -5 6
-37 2 -134 -1 -24 1 -45 5 -49 3 -3 2 -16 -3 -29 -5 -13 -6 -25 -4 -28 5 -5 6
-37 2 -134 -1 -24 1 -45 5 -49 3 -3 2 -16 -3 -29 -5 -13 -6 -25 -4 -28 5 -5 6
-37 2 -134 -1 -24 1 -45 5 -49 3 -3 2 -16 -3 -29 -5 -13 -7 -25 -5 -27 5 -4 6
-29 5 -118 0 -108 0 -125 -4 -152 -2 -16 0 -28 3 -28 4 0 5 -16 3 -35 -4 -33
-15 -42 -47 -35 -5 1 -17 1 -25 1 -124 -3 -160 -2 -169 4 -6 3 -11 1 -11 -5 0
-6 -5 -8 -11 -5 -15 10 -109 12 -109 2 0 -4 -8 -3 -19 2 -10 6 -21 8 -24 5 -8
-8 -147 -8 -154 0 -3 3 -12 1 -19 -5 -8 -7 -14 -7 -18 0 -4 7 -15 7 -31 1 -14
-5 -27 -5 -30 0 -3 5 -18 5 -34 0 -16 -4 -32 -6 -34 -4 -9 9 -117 10 -117 2 0
-5 -8 -4 -19 1 -10 6 -21 8 -24 5 -5 -5 -90 -8 -112 -4 -27 5 -52 4 -67 -3
-10 -4 -18 -4 -18 0 0 4 -13 8 -30 8 -16 0 -30 -4 -30 -8 0 -4 -8 -3 -18 2
-11 6 -24 6 -34 0 -10 -6 -19 -6 -22 0 -4 5 -17 8 -31 5 l-24 -4 0 797 c0 806
1 830 35 803 6 -6 13 -8 16 -5z"/>
<path d="M8999 4645 c-3 -2 -23 -5 -44 -6 -78 -3 -159 -37 -212 -87 -72 -70
-96 -125 -97 -229 -1 -29 -3 -53 -6 -53 -3 0 -4 -62 -2 -137 1 -76 3 -144 3
-150 0 -44 0 -105 0 -118 -1 -49 -1 -239 -1 -317 0 -51 0 -186 -1 -301 0 -114
2 -211 6 -216 3 -5 2 -12 -3 -15 -4 -3 -5 -30 -2 -60 3 -31 4 -56 1 -56 -5 0
-5 -97 0 -110 1 -3 1 -9 0 -14 -3 -12 -3 -320 0 -332 1 -5 1 -12 0 -16 -5 -18
-3 -109 1 -114 3 -2 2 -21 -1 -42 -4 -20 -4 -54 -1 -74 4 -21 5 -40 2 -43 -3
-3 -4 -40 -3 -82 1 -43 2 -82 2 -88 0 -115 0 -184 0 -202 l-1 -23 319 0 c310
0 319 1 324 20 3 11 1 20 -3 20 -5 0 -5 14 0 30 5 17 5 30 1 30 -4 0 -5 22 -1
49 3 27 3 58 -1 68 -4 11 -3 26 1 33 5 8 4 22 -1 31 -5 11 -5 20 0 24 6 3 6
17 1 35 -5 17 -5 30 0 30 5 0 5 13 0 30 -5 17 -5 30 0 30 5 0 5 13 0 29 -4 16
-6 32 -3 35 8 8 9 186 1 186 -4 0 -3 14 2 30 5 17 5 30 0 30 -4 0 -6 8 -4 18
7 30 9 152 3 152 -4 0 -3 15 1 34 4 18 3 40 -1 49 -6 9 -5 18 0 21 6 4 6 18 1
36 -5 17 -6 30 -2 30 8 0 7 89 -1 97 -3 3 -2 16 3 29 6 14 6 26 0 29 -6 4 -7
13 -1 24 6 10 6 23 1 31 -5 8 -5 21 0 30 5 9 5 22 0 30 -5 8 -5 21 0 30 5 9 5
22 0 30 -4 7 -4 24 0 36 6 14 5 26 0 29 -6 4 -7 13 -1 24 6 10 6 23 1 31 -5 8
-5 21 0 30 5 9 5 22 0 30 -5 8 -5 21 0 30 5 9 5 22 0 30 -5 8 -5 21 0 31 5 9
6 19 3 23 -4 4 -6 26 -4 49 6 90 6 117 0 117 -4 0 -3 15 1 34 4 18 3 40 -1 49
-6 9 -5 18 0 21 6 4 6 18 1 36 -5 17 -6 30 -2 30 4 0 7 34 7 75 0 41 -3 75 -7
75 -4 0 -3 11 2 24 5 13 7 26 5 27 -2 2 14 4 36 4 21 0 39 -2 39 -5 0 -3 26
-4 57 -2 32 1 68 2 81 2 25 0 33 0 115 1 33 0 61 -2 64 -5 3 -2 15 -1 27 4 12
4 29 4 37 0 8 -5 21 -5 29 0 7 4 24 4 36 0 13 -5 26 -5 29 -1 3 5 21 5 41 1
36 -8 54 5 39 30 -3 5 -2 10 4 10 7 0 7 8 1 25 -6 15 -6 27 0 30 6 3 6 15 0
30 -6 15 -6 25 0 25 5 0 5 12 0 30 -5 17 -5 30 0 30 5 0 5 13 0 30 -5 17 -5
30 0 30 5 0 5 12 1 28 -5 15 -5 37 0 49 5 13 4 25 -1 28 -6 4 -7 13 -1 24 5 9
6 23 2 29 -4 7 -4 35 -1 62 4 28 3 50 -1 50 -4 0 -4 14 1 30 5 17 5 30 0 30
-5 0 -7 7 -4 15 8 20 -32 34 -73 25 -18 -5 -35 -4 -38 1 -3 4 -16 4 -29 -1
-12 -4 -29 -5 -36 0 -7 5 -23 5 -34 1 -12 -4 -32 -5 -46 -1 -14 3 -38 3 -55 0
-16 -3 -41 -3 -55 0 -14 4 -35 3 -47 -1 -12 -5 -25 -4 -28 1 -3 5 -18 5 -34 0
-15 -4 -34 -4 -42 0 -7 5 -20 5 -29 0 -9 -5 -22 -5 -29 -1 -7 5 -29 5 -49 1
-20 -3 -48 -3 -62 0 -14 4 -35 3 -47 -1 -12 -5 -25 -4 -28 1 -3 5 -18 5 -34 0
-15 -4 -34 -4 -42 0 -7 5 -20 5 -29 0 -8 -5 -23 -4 -31 1 -9 4 -18 7 -20 4z"/>
</g>
</svg>
